<svg xmlns="http://www.w3.org/2000/svg" width="720" height="430" viewBox="0 0 720 430" role="img" aria-labelledby="title desc">
  <title id="title">مشروع فينلانس</title>
  <desc id="desc">محفظة رقمية وإدارة مالية.</desc>
  <defs>
    <linearGradient id="bg" x1="0" x2="1" y1="0" y2="1"><stop stop-color="#f8f4ff"/><stop offset="1" stop-color="#cbc0ff"/></linearGradient>
    <linearGradient id="card" x1="0" x2="1" y1="0" y2="1"><stop stop-color="#6d51ed"/><stop offset="1" stop-color="#24147f"/></linearGradient>
    <filter id="shadow"><feDropShadow dx="0" dy="18" stdDeviation="18" flood-color="#4225ad" flood-opacity=".22"/></filter>
  </defs>
  <rect width="720" height="430" rx="30" fill="url(#bg)"/>
  <rect x="82" y="70" width="556" height="290" rx="24" fill="#fff" filter="url(#shadow)"/>
  <rect x="112" y="103" width="210" height="136" rx="20" fill="url(#card)"/>
  <rect x="134" y="130" width="76" height="12" rx="6" fill="#fff" opacity=".75"/>
  <rect x="134" y="174" width="132" height="20" rx="10" fill="#fff"/>
  <rect x="134" y="207" width="68" height="10" rx="5" fill="#b9adff"/>
  <circle cx="282" cy="197" r="25" fill="#fff" opacity=".22"/>
  <rect x="366" y="108" width="214" height="34" rx="17" fill="#f0ecff"/>
  <rect x="366" y="165" width="78" height="118" rx="16" fill="#f4f1ff"/>
  <rect x="472" y="132" width="78" height="151" rx="16" fill="#ebe5ff"/>
  <rect x="390" y="206" width="30" height="53" rx="10" fill="#7659f0"/>
  <rect x="496" y="172" width="30" height="87" rx="10" fill="#3f25c9"/>
  <path d="M382 318h176" stroke="#d8d0ff" stroke-width="12" stroke-linecap="round"/>
  <path d="M382 318h112" stroke="#5637e8" stroke-width="12" stroke-linecap="round"/>
  <circle cx="592" cy="126" r="28" fill="#5637e8"/>
  <path d="M582 126h20M592 116v20" stroke="#fff" stroke-width="7" stroke-linecap="round"/>
</svg>
