<svg xmlns="http://www.w3.org/2000/svg" width="720" height="430" viewBox="0 0 720 430" role="img" aria-labelledby="title desc">
  <title id="title">واجهة مشروع مقود</title>
  <desc id="desc">تصميم واجهة موقع لتأجير وشراء السيارات.</desc>
  <defs>
    <linearGradient id="bg" x1="0" x2="1" y1="0" y2="1">
      <stop offset="0" stop-color="#f5f1ff"/>
      <stop offset="1" stop-color="#cfc2ff"/>
    </linearGradient>
    <linearGradient id="purple" x1="0" x2="1" y1="0" y2="1">
      <stop offset="0" stop-color="#7f63ff"/>
      <stop offset="1" stop-color="#3520bd"/>
    </linearGradient>
    <filter id="shadow" x="-20%" y="-20%" width="140%" height="150%">
      <feDropShadow dx="0" dy="18" stdDeviation="18" flood-color="#4b31be" flood-opacity=".22"/>
    </filter>
  </defs>
  <rect width="720" height="430" rx="28" fill="url(#bg)"/>
  <rect x="62" y="58" width="596" height="314" rx="22" fill="#fff" filter="url(#shadow)"/>
  <rect x="92" y="86" width="156" height="18" rx="9" fill="#231a54"/>
  <rect x="504" y="84" width="64" height="12" rx="6" fill="#d8d0ff"/>
  <rect x="580" y="84" width="44" height="12" rx="6" fill="#d8d0ff"/>
  <rect x="92" y="136" width="214" height="34" rx="17" fill="#f0ecff"/>
  <rect x="92" y="188" width="138" height="20" rx="10" fill="#2c2459"/>
  <rect x="92" y="220" width="226" height="12" rx="6" fill="#b5a8f8"/>
  <rect x="92" y="246" width="176" height="12" rx="6" fill="#d3ccff"/>
  <rect x="92" y="292" width="132" height="44" rx="12" fill="url(#purple)"/>
  <path d="M330 251c15-45 43-81 84-95h87c41 15 73 48 95 95l25 6c17 4 28 20 28 38v22H306v-22c0-18 10-34 27-39l-3-5z" fill="#6e52ea"/>
  <path d="M382 242c11-28 31-50 59-61h45c30 10 53 32 70 61H382z" fill="#ebe7ff"/>
  <rect x="420" y="184" width="36" height="58" rx="8" fill="#fff"/>
  <circle cx="374" cy="319" r="43" fill="#241a57"/>
  <circle cx="374" cy="319" r="20" fill="#8570ff"/>
  <circle cx="580" cy="319" r="43" fill="#241a57"/>
  <circle cx="580" cy="319" r="20" fill="#8570ff"/>
  <rect x="494" y="264" width="52" height="12" rx="6" fill="#c6bbff"/>
  <rect x="587" y="268" width="28" height="12" rx="6" fill="#ffd16b"/>
  <circle cx="132" cy="143" r="6" fill="#5637e8"/>
  <circle cx="158" cy="143" r="6" fill="#a895ff"/>
  <circle cx="184" cy="143" r="6" fill="#a895ff"/>
</svg>
