<svg xmlns="http://www.w3.org/2000/svg" width="720" height="430" viewBox="0 0 720 430" role="img" aria-labelledby="title desc">
  <title id="title">مشروع نقطة</title>
  <desc id="desc">موقع تسويق وخدمات رقمية.</desc>
  <defs>
    <linearGradient id="bg" x1="0" x2="1" y1="0" y2="1"><stop stop-color="#f6f2ff"/><stop offset="1" stop-color="#d8ceff"/></linearGradient>
    <linearGradient id="accent" x1="0" x2="1"><stop stop-color="#7e61ff"/><stop offset="1" stop-color="#3520bd"/></linearGradient>
    <filter id="shadow"><feDropShadow dx="0" dy="16" stdDeviation="16" flood-color="#4d31bf" flood-opacity=".2"/></filter>
  </defs>
  <rect width="720" height="430" rx="30" fill="url(#bg)"/>
  <rect x="72" y="62" width="576" height="306" rx="24" fill="#fff" filter="url(#shadow)"/>
  <rect x="102" y="92" width="118" height="16" rx="8" fill="#2a205d"/>
  <rect x="472" y="94" width="52" height="10" rx="5" fill="#d9d2ff"/>
  <rect x="538" y="94" width="72" height="10" rx="5" fill="#d9d2ff"/>
  <rect x="102" y="138" width="230" height="34" rx="17" fill="#f0ecff"/>
  <rect x="102" y="190" width="170" height="24" rx="12" fill="#251a58"/>
  <rect x="102" y="230" width="220" height="12" rx="6" fill="#b9adff"/>
  <rect x="102" y="254" width="168" height="12" rx="6" fill="#d5ceff"/>
  <rect x="102" y="300" width="130" height="42" rx="12" fill="url(#accent)"/>
  <circle cx="485" cy="215" r="82" fill="#ede8ff"/>
  <path d="M444 234c38-14 66-42 83-82 6 46-8 82-42 109l-3 45-24-34-44 4 30-42Z" fill="url(#accent)"/>
  <path d="M506 175 457 249" stroke="#fff" stroke-width="10" stroke-linecap="round"/>
  <circle cx="558" cy="276" r="22" fill="#fff" opacity=".9"/>
  <circle cx="400" cy="158" r="15" fill="#fff" opacity=".9"/>
</svg>
